<svg xmlns="http://www.w3.org/2000/svg" xmlns:xlink="http://www.w3.org/1999/xlink" width="300" zoomAndPan="magnify" viewBox="0 0 224.87999 112.499997" height="150" preserveAspectRatio="xMidYMid meet" version="1.0"><defs><g/><clipPath id="cb7c1ed3da"><path d="M 3.488281 35 L 46 35 L 46 57 L 3.488281 57 Z M 3.488281 35 " clip-rule="nonzero"/></clipPath><clipPath id="fe7648de85"><path d="M 39 65 L 53.671875 65 L 53.671875 79 L 39 79 Z M 39 65 " clip-rule="nonzero"/></clipPath><clipPath id="703fcdc332"><path d="M 17.417969 49.101562 L 23.511719 49.101562 L 23.511719 55.984375 L 17.417969 55.984375 Z M 17.417969 49.101562 " clip-rule="nonzero"/></clipPath><clipPath id="35dfd1d487"><path d="M 31.683594 49.101562 L 35.792969 49.101562 L 35.792969 53.34375 L 31.683594 53.34375 Z M 31.683594 49.101562 " clip-rule="nonzero"/></clipPath><clipPath id="e6c752898c"><path d="M 13.160156 45.699219 L 42 45.699219 L 42 51.21875 L 13.160156 51.21875 Z M 13.160156 45.699219 " clip-rule="nonzero"/></clipPath></defs><path fill="#bbbab8" d="M 28.480469 37.125 C 28.480469 37.125 26.097656 37.769531 24.113281 37.464844 C 22.128906 37.160156 17.742188 41.046875 17.742188 41.046875 C 17.742188 41.046875 10.320312 51.320312 11.007812 53.273438 C 11.691406 55.230469 12.714844 64.78125 13.695312 68.515625 C 14.671875 72.25 18.128906 80.527344 20.664062 80.050781 C 23.199219 79.578125 22.988281 74.257812 22.988281 74.257812 L 24.113281 71.898438 C 24.113281 71.898438 24.320312 73.628906 26.261719 75.292969 C 28.199219 76.957031 32.636719 80.242188 34.035156 80.050781 C 35.4375 79.859375 38.988281 78.621094 39.445312 77.558594 C 39.902344 76.496094 43.476562 74.132812 43.476562 74.132812 L 48.949219 70.425781 L 48.664062 65.269531 L 44.8125 58.160156 C 44.8125 58.160156 45.511719 52.039062 45.609375 50.226562 C 45.707031 48.414062 38.867188 41.296875 38.867188 41.296875 C 38.867188 41.296875 42.238281 36.230469 37.507812 35.753906 C 32.78125 35.28125 28.480469 37.125 28.480469 37.125 Z M 28.480469 37.125 " fill-opacity="1" fill-rule="nonzero"/><path fill="#050606" d="M 37.941406 55.710938 L 17.925781 55.710938 C 17.097656 55.710938 16.421875 55.03125 16.421875 54.207031 L 16.421875 46.058594 C 16.421875 45.230469 17.097656 44.554688 17.925781 44.554688 L 37.941406 44.554688 C 38.769531 44.554688 39.445312 45.230469 39.445312 46.058594 L 39.445312 54.207031 C 39.445312 55.03125 38.769531 55.710938 37.941406 55.710938 Z M 37.941406 55.710938 " fill-opacity="1" fill-rule="nonzero"/><g clip-path="url(#cb7c1ed3da)"><path fill="#bbbab8" d="M 38.152344 35.691406 C 38.179688 35.695312 38.203125 35.695312 38.226562 35.699219 C 38.382812 35.800781 38.550781 35.757812 38.714844 35.761719 C 38.714844 35.761719 38.726562 35.765625 38.726562 35.765625 C 38.863281 35.894531 39.03125 35.917969 39.210938 35.90625 C 39.210938 35.90625 39.222656 35.90625 39.222656 35.90625 C 39.300781 35.996094 39.402344 35.984375 39.503906 35.96875 C 40.042969 36.113281 40.519531 36.394531 41.019531 36.621094 C 41.523438 36.851562 41.875 37.277344 42.34375 37.542969 C 42.464844 37.613281 42.554688 37.734375 42.613281 37.863281 C 42.660156 37.964844 42.71875 38.050781 42.796875 38.125 C 43.289062 38.566406 43.546875 39.171875 43.90625 39.707031 C 44.210938 40.160156 44.359375 40.675781 44.515625 41.199219 C 44.75 41.988281 44.851562 42.808594 45.117188 43.585938 C 45.199219 43.820312 45.1875 44.070312 45.230469 44.3125 C 45.335938 44.925781 45.480469 45.53125 45.605469 46.140625 C 45.660156 46.414062 45.660156 46.699219 45.667969 46.976562 C 45.6875 47.453125 45.691406 47.9375 45.707031 48.414062 C 45.730469 49.289062 45.558594 50.148438 45.597656 51.019531 C 45.605469 51.203125 45.539062 51.390625 45.507812 51.578125 C 45.347656 51.460938 45.183594 51.355469 44.992188 51.492188 C 44.722656 51.683594 44.421875 51.816406 44.132812 51.96875 C 43.660156 52.214844 43.171875 52.402344 42.644531 52.492188 C 42.414062 52.53125 42.183594 52.585938 41.960938 52.660156 C 41.527344 52.804688 41.09375 52.953125 40.648438 53.070312 C 40.140625 53.210938 39.621094 53.332031 39.125 53.503906 C 38.890625 53.585938 38.644531 53.632812 38.425781 53.742188 C 37.984375 53.964844 37.503906 54.074219 37.042969 54.25 C 36.667969 54.394531 36.257812 54.417969 35.878906 54.535156 C 35.28125 54.71875 34.65625 54.765625 34.046875 54.886719 C 33.644531 54.96875 33.234375 55.011719 32.835938 55.105469 C 32.441406 55.195312 32.035156 55.191406 31.648438 55.277344 C 30.925781 55.4375 30.199219 55.578125 29.476562 55.746094 C 28.777344 55.90625 28.070312 56.015625 27.371094 56.175781 C 27.097656 56.238281 26.835938 56.375 26.554688 56.378906 C 26.335938 56.382812 26.132812 56.421875 25.929688 56.484375 C 25.261719 56.691406 24.574219 56.734375 23.882812 56.777344 C 23.53125 56.796875 23.179688 56.738281 22.828125 56.792969 C 22.039062 56.921875 21.246094 57.019531 20.441406 56.933594 C 20.269531 56.914062 20.09375 56.890625 19.917969 56.882812 C 19.519531 56.867188 19.117188 56.871094 18.71875 56.832031 C 17.957031 56.757812 17.214844 56.585938 16.472656 56.410156 C 15.921875 56.285156 15.394531 56.089844 14.828125 56.019531 C 13.753906 55.882812 12.734375 55.507812 11.691406 55.230469 C 11.539062 55.191406 11.394531 55.148438 11.242188 55.195312 C 11.175781 54.753906 11.066406 54.320312 11.089844 53.863281 C 11.101562 53.667969 11.046875 53.46875 11.007812 53.273438 C 10.925781 52.871094 10.921875 52.457031 10.835938 52.058594 C 10.714844 51.476562 10.765625 50.890625 10.742188 50.304688 C 10.738281 50.203125 10.699219 50.128906 10.644531 50.050781 C 10.089844 49.3125 9.6875 48.488281 9.214844 47.699219 C 8.855469 47.105469 8.542969 46.484375 8.242188 45.863281 C 7.914062 45.191406 7.609375 44.503906 7.324219 43.808594 C 7.214844 43.550781 7.089844 43.296875 6.949219 43.054688 C 6.808594 42.820312 6.785156 42.539062 6.652344 42.300781 C 6.417969 41.878906 6.21875 41.441406 5.996094 41.015625 C 5.9375 40.90625 5.925781 40.789062 5.875 40.683594 C 5.828125 40.589844 5.78125 40.492188 5.679688 40.441406 C 5.378906 40.738281 4.992188 40.683594 4.625 40.675781 C 4.402344 40.671875 4.265625 40.472656 4.148438 40.332031 C 3.871094 39.988281 3.484375 39.683594 3.582031 39.148438 C 3.632812 38.851562 3.738281 38.609375 4.039062 38.488281 C 4.179688 38.429688 4.308594 38.339844 4.4375 38.257812 C 4.578125 38.171875 4.589844 38.070312 4.53125 37.902344 C 4.324219 37.316406 4.132812 36.722656 3.972656 36.125 C 3.878906 35.773438 4.039062 35.5 4.335938 35.367188 C 4.4375 35.320312 4.546875 35.296875 4.644531 35.339844 C 4.945312 35.472656 5.246094 35.605469 5.429688 35.902344 C 5.75 36.421875 6.113281 36.921875 6.363281 37.484375 C 6.492188 37.777344 6.742188 37.988281 6.882812 38.277344 C 7.191406 38.929688 7.066406 39.402344 6.625 39.769531 C 6.394531 39.964844 6.386719 40.015625 6.550781 40.253906 C 6.738281 40.527344 6.800781 40.855469 6.9375 41.152344 C 6.996094 41.289062 7.042969 41.433594 7.121094 41.566406 C 7.328125 41.910156 7.503906 42.265625 7.625 42.648438 C 7.671875 42.792969 7.742188 42.933594 7.8125 43.066406 C 8.195312 43.804688 8.550781 44.558594 8.863281 45.328125 C 9.042969 45.773438 9.300781 46.183594 9.546875 46.59375 C 9.820312 47.046875 10.066406 47.511719 10.285156 47.992188 C 10.410156 48.265625 10.59375 48.511719 10.777344 48.816406 C 10.871094 48.578125 10.953125 48.394531 10.90625 48.179688 C 10.894531 48.121094 10.882812 48.054688 10.898438 48.003906 C 11.128906 47.203125 10.964844 46.359375 11.167969 45.554688 C 11.101562 45.042969 11.273438 44.550781 11.355469 44.058594 C 11.429688 43.59375 11.507812 43.101562 11.746094 42.671875 C 11.796875 42.578125 11.8125 42.472656 11.835938 42.371094 C 11.894531 42.140625 11.941406 41.910156 12.105469 41.722656 C 12.128906 41.699219 12.148438 41.664062 12.152344 41.632812 C 12.222656 41.207031 12.507812 40.894531 12.703125 40.535156 C 12.730469 40.480469 12.777344 40.433594 12.785156 40.378906 C 12.847656 39.996094 13.136719 39.777344 13.382812 39.53125 C 13.507812 39.402344 13.601562 39.253906 13.707031 39.117188 C 13.996094 38.742188 14.273438 38.34375 14.648438 38.070312 C 15.109375 37.734375 15.519531 37.3125 16.070312 37.109375 C 16.402344 36.984375 16.671875 36.742188 16.980469 36.566406 C 17.476562 36.285156 17.996094 36.15625 18.550781 36.109375 C 18.8125 36.089844 19.066406 36.0625 19.3125 35.96875 C 19.78125 35.792969 20.285156 35.808594 20.765625 35.71875 C 20.992188 35.675781 21.222656 35.808594 21.449219 35.859375 C 21.773438 35.933594 22.101562 35.972656 22.421875 36.042969 C 22.605469 36.082031 22.796875 36.085938 22.949219 36.21875 C 22.972656 36.242188 23.015625 36.257812 23.046875 36.253906 C 23.550781 36.222656 23.980469 36.46875 24.4375 36.609375 C 24.742188 36.703125 25.070312 36.648438 25.375 36.738281 C 25.417969 36.753906 25.476562 36.726562 25.515625 36.746094 C 26.066406 37.027344 26.691406 36.941406 27.273438 37.066406 C 27.585938 37.136719 27.925781 37.089844 28.253906 37.09375 C 28.320312 37.105469 28.390625 37.113281 28.480469 37.125 C 28.296875 37.328125 28.039062 37.304688 27.835938 37.410156 C 27.480469 37.597656 27.128906 37.792969 26.753906 37.929688 C 26.113281 38.167969 25.539062 38.550781 24.886719 38.75 C 24.84375 38.765625 24.808594 38.800781 24.769531 38.832031 C 24.585938 38.984375 24.375 39.085938 24.152344 39.164062 C 23.984375 39.222656 23.820312 39.289062 23.691406 39.417969 C 23.605469 39.503906 23.496094 39.554688 23.386719 39.597656 C 22.839844 39.8125 22.332031 40.109375 21.804688 40.367188 C 21.007812 40.761719 20.164062 40.984375 19.308594 41.191406 C 19.21875 41.214844 19.121094 41.203125 19.03125 41.226562 C 18.746094 41.296875 18.519531 41.585938 18.539062 41.84375 C 18.554688 42.09375 18.75 42.285156 19.054688 42.339844 C 19.171875 42.359375 19.289062 42.347656 19.40625 42.328125 C 19.8125 42.265625 20.1875 42.058594 20.605469 42.054688 C 20.660156 42.054688 20.714844 42.011719 20.769531 41.988281 C 20.984375 41.898438 21.199219 41.800781 21.421875 41.722656 C 22.078125 41.5 22.734375 41.273438 23.3125 40.878906 C 23.460938 40.78125 23.632812 40.726562 23.785156 40.648438 C 24.089844 40.492188 24.441406 40.421875 24.714844 40.234375 C 25.183594 39.90625 25.738281 39.765625 26.214844 39.464844 C 26.792969 39.105469 27.5 39.015625 28.046875 38.585938 C 28.089844 38.550781 28.152344 38.539062 28.210938 38.523438 C 28.832031 38.355469 29.417969 38.078125 30.035156 37.886719 C 30.203125 37.832031 30.355469 37.757812 30.539062 37.734375 C 31.246094 37.632812 31.945312 37.492188 32.648438 37.363281 C 33.1875 37.265625 33.734375 37.246094 34.273438 37.113281 C 34.769531 36.992188 35.292969 36.988281 35.792969 36.878906 C 36.449219 36.734375 37.101562 36.8125 37.753906 36.863281 C 38.027344 36.886719 38.292969 36.898438 38.554688 36.816406 C 38.898438 36.707031 38.96875 36.375 38.707031 36.132812 C 38.53125 35.972656 38.3125 35.925781 38.089844 35.894531 C 37.890625 35.863281 37.695312 35.832031 37.507812 35.753906 C 37.714844 35.644531 37.941406 35.738281 38.152344 35.691406 Z M 27.148438 53.878906 C 27.296875 54.042969 27.496094 54.121094 27.703125 54.167969 C 28.550781 54.359375 29.664062 53.894531 30.007812 53.121094 C 30.160156 52.988281 30.304688 52.832031 30.347656 52.644531 C 30.464844 52.109375 30.460938 51.570312 30.3125 51.039062 C 30.226562 50.738281 30.003906 50.636719 29.707031 50.746094 C 29.632812 50.777344 29.558594 50.8125 29.480469 50.835938 C 28.789062 51.042969 28.082031 51.117188 27.363281 51.015625 C 27.316406 51.007812 27.269531 51.019531 27.222656 51.023438 C 26.929688 51.042969 26.640625 51.058594 26.347656 51.03125 C 26.0625 51 25.882812 51.105469 25.808594 51.375 C 25.714844 51.730469 25.695312 52.082031 25.8125 52.449219 C 25.910156 52.753906 26.121094 52.96875 26.277344 53.226562 C 26.488281 53.570312 26.761719 53.789062 27.148438 53.878906 Z M 21.28125 52.316406 C 22.203125 52.335938 22.308594 52.207031 22.804688 51.726562 C 23.191406 51.355469 22.921875 50.511719 22.441406 50.386719 C 22.136719 50.304688 21.835938 50.316406 21.539062 50.257812 C 21.007812 50.152344 20.566406 50.332031 20.140625 50.597656 C 19.707031 50.871094 19.703125 51.671875 20.113281 51.972656 C 20.503906 52.261719 20.941406 52.339844 21.28125 52.316406 Z M 33.6875 51.972656 C 34.386719 52.011719 35.042969 51.617188 35.367188 51.015625 C 35.464844 50.839844 35.503906 50.664062 35.410156 50.476562 C 35.269531 50.203125 35.050781 49.992188 34.757812 49.921875 C 34.210938 49.789062 33.660156 49.710938 33.097656 49.914062 C 32.679688 50.070312 32.375 50.441406 32.363281 50.917969 C 32.355469 51.339844 32.617188 51.710938 33.035156 51.847656 C 33.257812 51.921875 33.480469 51.996094 33.6875 51.972656 Z M 22.890625 48.875 C 23.113281 48.882812 23.265625 48.761719 23.304688 48.546875 C 23.332031 48.386719 23.351562 48.222656 23.367188 48.058594 C 23.425781 47.480469 24.058594 47.101562 24.589844 47.332031 C 24.71875 47.386719 24.828125 47.46875 24.933594 47.570312 C 25.132812 47.765625 25.367188 47.785156 25.535156 47.644531 C 25.730469 47.484375 25.753906 47.226562 25.570312 46.984375 C 25.230469 46.539062 24.816406 46.261719 24.214844 46.371094 C 24.027344 46.402344 23.847656 46.445312 23.667969 46.507812 C 23.070312 46.710938 22.679688 47.09375 22.550781 47.734375 C 22.488281 48.046875 22.585938 48.339844 22.601562 48.644531 C 22.609375 48.789062 22.746094 48.878906 22.890625 48.875 Z M 32.597656 47.78125 C 32.574219 47.628906 32.550781 47.476562 32.433594 47.363281 C 32.285156 47.222656 32.183594 47.054688 32.085938 46.878906 C 31.664062 46.117188 30.78125 46.066406 30.089844 46.230469 C 29.546875 46.363281 29.328125 46.847656 29.117188 47.308594 C 29.089844 47.367188 29.085938 47.449219 29.097656 47.515625 C 29.125 47.734375 29.339844 47.855469 29.542969 47.773438 C 29.667969 47.71875 29.761719 47.632812 29.828125 47.515625 C 29.910156 47.371094 30.039062 47.261719 30.140625 47.132812 C 30.203125 47.050781 30.28125 47.007812 30.378906 47.007812 C 30.523438 47.011719 30.65625 46.972656 30.796875 46.957031 C 31.125 46.917969 31.339844 47.035156 31.480469 47.332031 C 31.605469 47.605469 31.847656 47.789062 32.007812 48.035156 C 32.085938 48.160156 32.242188 48.1875 32.390625 48.121094 C 32.535156 48.058594 32.597656 47.9375 32.597656 47.78125 Z M 32.597656 47.78125 " fill-opacity="1" fill-rule="nonzero"/></g><path fill="#bbbab8" d="M 24.6875 73.738281 C 24.683594 73.746094 24.671875 73.757812 24.671875 73.765625 C 24.703125 74.242188 24.535156 74.6875 24.453125 75.148438 C 24.410156 75.382812 24.445312 75.617188 24.429688 75.851562 C 24.40625 76.265625 24.238281 76.648438 24.242188 77.0625 C 24.242188 77.273438 24.144531 77.472656 24.0625 77.671875 C 23.988281 77.867188 23.917969 78.066406 23.90625 78.285156 C 23.898438 78.4375 23.867188 78.585938 23.683594 78.644531 C 23.585938 78.675781 23.578125 78.792969 23.542969 78.878906 C 23.453125 79.125 23.335938 79.355469 23.199219 79.578125 C 23.085938 79.761719 22.933594 79.898438 22.75 80.015625 C 22.382812 80.246094 22.039062 80.519531 21.625 80.664062 C 21.558594 80.6875 21.496094 80.734375 21.429688 80.742188 C 20.929688 80.785156 20.429688 80.867188 19.921875 80.796875 C 19.890625 80.792969 19.855469 80.769531 19.820312 80.773438 C 19.253906 80.832031 18.800781 80.523438 18.335938 80.289062 C 17.953125 80.097656 17.609375 79.816406 17.367188 79.441406 C 17.257812 79.269531 17.148438 79.105469 17.035156 78.9375 C 16.929688 78.78125 16.820312 78.628906 16.824219 78.425781 C 16.824219 78.371094 16.796875 78.304688 16.761719 78.265625 C 16.550781 78.046875 16.511719 77.753906 16.460938 77.484375 C 16.394531 77.113281 16.21875 76.796875 16.0625 76.472656 C 15.832031 75.992188 15.695312 75.484375 15.558594 74.976562 C 15.492188 74.726562 15.417969 74.484375 15.308594 74.246094 C 15.179688 73.949219 15.023438 73.65625 14.957031 73.328125 C 14.929688 73.167969 14.871094 73.007812 14.800781 72.859375 C 14.730469 72.71875 14.683594 72.582031 14.691406 72.421875 C 14.695312 72.363281 14.695312 72.300781 14.671875 72.25 C 14.40625 71.542969 14.308594 70.789062 14.03125 70.089844 C 13.976562 69.949219 13.976562 69.789062 13.945312 69.636719 C 13.863281 69.261719 13.78125 68.886719 13.695312 68.515625 C 13.632812 68.253906 13.589844 67.984375 13.492188 67.734375 C 13.289062 67.21875 13.257812 66.660156 13.058594 66.140625 C 13.023438 66.054688 12.960938 65.960938 12.96875 65.875 C 13.015625 65.449219 12.753906 65.082031 12.753906 64.667969 C 12.753906 64.578125 12.699219 64.488281 12.667969 64.398438 C 12.867188 64.375 13.0625 64.328125 13.246094 64.246094 C 13.460938 64.148438 13.679688 64.054688 13.910156 64 C 14.605469 63.828125 15.238281 63.460938 15.953125 63.359375 C 15.976562 63.359375 15.996094 63.34375 16.019531 63.335938 C 16.582031 63.101562 17.144531 62.871094 17.703125 62.621094 C 17.859375 62.554688 18.027344 62.550781 18.175781 62.476562 C 18.660156 62.238281 19.140625 61.992188 19.675781 61.882812 C 19.789062 61.859375 19.890625 61.785156 19.992188 61.730469 C 20.097656 61.675781 20.195312 61.597656 20.304688 61.5625 C 20.75 61.402344 21.175781 61.210938 21.585938 60.976562 C 21.730469 60.894531 21.863281 60.800781 22.015625 60.730469 C 22.503906 60.507812 22.992188 60.269531 23.457031 59.992188 C 24.050781 59.632812 24.636719 59.269531 25.171875 58.773438 C 25.199219 58.972656 25.117188 59.105469 25.070312 59.246094 C 24.914062 59.6875 24.703125 60.117188 24.675781 60.59375 C 24.664062 60.851562 24.667969 61.109375 24.628906 61.367188 C 24.582031 61.695312 24.65625 62.007812 24.863281 62.269531 C 25.054688 62.515625 25.332031 62.648438 25.625 62.652344 C 26.019531 62.65625 26.34375 62.476562 26.582031 62.144531 C 26.800781 61.839844 26.964844 61.519531 27.042969 61.15625 C 27.105469 60.863281 27.179688 60.570312 27.261719 60.226562 C 27.332031 60.332031 27.382812 60.386719 27.402344 60.449219 C 27.53125 60.84375 27.820312 61.128906 28.070312 61.429688 C 28.335938 61.757812 28.710938 61.960938 29.160156 61.886719 C 29.746094 61.792969 30.328125 61.035156 30.238281 60.453125 C 30.191406 60.160156 30.160156 59.832031 29.949219 59.59375 C 29.644531 59.246094 29.425781 58.839844 29.132812 58.484375 C 28.996094 58.324219 28.816406 58.199219 28.640625 57.964844 C 28.945312 58.070312 29.171875 58.15625 29.402344 58.226562 C 29.78125 58.34375 30.15625 58.464844 30.554688 58.527344 C 30.902344 58.582031 31.25 58.625 31.59375 58.691406 C 31.949219 58.761719 32.296875 58.882812 32.660156 58.941406 C 32.96875 58.988281 33.289062 59.023438 33.589844 59.101562 C 34.425781 59.316406 35.277344 59.4375 36.121094 59.589844 C 36.59375 59.675781 37.070312 59.785156 37.546875 59.777344 C 38.027344 59.773438 38.507812 59.925781 38.988281 59.785156 C 39.058594 59.765625 39.148438 59.8125 39.226562 59.832031 C 40.042969 60.035156 40.871094 60.113281 41.707031 60.128906 C 41.671875 60.363281 41.574219 60.582031 41.503906 60.804688 C 41.421875 61.070312 41.34375 61.339844 41.273438 61.609375 C 41.089844 62.324219 40.984375 63.058594 40.71875 63.753906 C 40.632812 63.976562 40.546875 64.199219 40.507812 64.429688 C 40.453125 64.792969 40.339844 65.136719 40.257812 65.492188 C 40.164062 65.875 39.945312 66.230469 39.996094 66.648438 C 40 66.679688 39.988281 66.722656 39.972656 66.75 C 39.820312 67 39.804688 67.28125 39.753906 67.5625 C 39.679688 67.988281 39.617188 68.421875 39.476562 68.828125 C 39.316406 69.300781 39.308594 69.800781 39.148438 70.269531 C 39.046875 70.570312 38.972656 70.878906 38.867188 71.179688 C 38.703125 71.648438 38.648438 72.140625 38.554688 72.625 C 38.496094 72.941406 38.375 73.230469 38.289062 73.535156 C 38.105469 74.214844 37.902344 74.890625 37.582031 75.519531 C 37.480469 75.71875 37.335938 75.902344 37.265625 76.109375 C 37.035156 76.773438 36.664062 77.355469 36.261719 77.921875 C 36.199219 78.011719 36.160156 78.109375 36.132812 78.210938 C 36.0625 78.472656 36.171875 78.714844 36.40625 78.835938 C 36.640625 78.957031 36.863281 78.925781 37.039062 78.710938 C 37.292969 78.398438 37.535156 78.074219 37.734375 77.734375 C 38.046875 77.199219 38.296875 76.628906 38.542969 76.058594 C 38.621094 75.882812 38.757812 75.75 38.808594 75.5625 C 38.933594 75.125 39.179688 74.722656 39.230469 74.257812 C 39.238281 74.191406 39.28125 74.125 39.300781 74.058594 C 39.570312 73.296875 39.886719 72.550781 39.90625 71.726562 C 39.910156 71.597656 39.949219 71.472656 40.019531 71.355469 C 40.089844 71.234375 40.125 71.097656 40.164062 70.960938 C 40.277344 70.539062 40.390625 70.121094 40.441406 69.6875 C 40.488281 69.285156 40.691406 68.929688 40.753906 68.53125 C 40.828125 68.054688 40.933594 67.585938 41.066406 67.121094 C 41.097656 67.019531 41.132812 66.914062 41.136719 66.8125 C 41.148438 66.265625 41.359375 65.761719 41.488281 65.242188 C 41.597656 64.785156 41.707031 64.328125 41.867188 63.882812 C 41.949219 63.65625 42.011719 63.410156 42.039062 63.171875 C 42.085938 62.761719 42.269531 62.375 42.207031 61.953125 C 42.199219 61.910156 42.222656 61.859375 42.238281 61.816406 C 42.390625 61.320312 42.382812 60.816406 42.292969 60.316406 C 42.273438 60.199219 42.296875 60.136719 42.40625 60.101562 C 42.464844 60.101562 42.53125 60.121094 42.582031 60.105469 C 43.125 59.933594 43.695312 60.046875 44.234375 59.890625 C 44.269531 60.015625 44.269531 60.109375 44.242188 60.199219 C 44.109375 60.699219 44.035156 61.214844 43.855469 61.699219 C 43.828125 61.777344 43.792969 61.855469 43.785156 61.9375 C 43.707031 62.542969 43.582031 63.140625 43.328125 63.703125 C 43.253906 63.875 43.21875 64.0625 43.214844 64.253906 C 43.210938 64.359375 43.203125 64.464844 43.15625 64.5625 C 43.042969 64.800781 42.980469 65.050781 42.949219 65.308594 C 42.9375 65.425781 42.914062 65.550781 42.851562 65.648438 C 42.734375 65.835938 42.722656 66.042969 42.695312 66.253906 C 42.632812 66.664062 42.660156 67.105469 42.363281 67.457031 C 42.3125 67.519531 42.300781 67.609375 42.382812 67.691406 C 42.640625 67.605469 42.90625 67.5 43.175781 67.421875 C 43.472656 67.335938 43.777344 67.285156 44.0625 67.464844 C 44.152344 67.519531 44.214844 67.472656 44.292969 67.441406 C 44.824219 67.234375 45.269531 66.882812 45.742188 66.578125 C 46.105469 66.347656 46.433594 66.054688 46.757812 65.765625 C 47.011719 65.539062 47.324219 65.378906 47.546875 65.117188 C 47.761719 64.867188 48.007812 64.652344 48.257812 64.441406 C 48.347656 64.402344 48.414062 64.332031 48.46875 64.257812 C 48.671875 63.953125 48.945312 63.710938 49.148438 63.40625 C 49.449219 62.945312 49.851562 62.550781 50.089844 62.046875 C 50.207031 61.804688 50.296875 61.546875 50.429688 61.316406 C 50.601562 61.027344 50.679688 60.707031 50.796875 60.402344 C 50.9375 60.023438 50.890625 59.660156 50.699219 59.316406 C 50.539062 59.027344 50.375 58.746094 50.085938 58.5625 C 49.964844 58.488281 49.851562 58.398438 49.761719 58.292969 C 49.546875 58.042969 49.324219 57.804688 49.066406 57.605469 C 48.820312 57.421875 48.59375 57.222656 48.425781 56.957031 C 48.359375 56.859375 48.269531 56.785156 48.164062 56.726562 C 47.859375 56.570312 47.554688 56.414062 47.269531 56.230469 C 46.667969 55.84375 46.023438 55.535156 45.394531 55.199219 C 45.371094 55.082031 45.382812 54.96875 45.390625 54.851562 C 45.40625 54.601562 45.476562 54.351562 45.449219 54.097656 C 45.878906 54.453125 46.378906 54.695312 46.871094 54.941406 C 47.167969 55.085938 47.457031 55.246094 47.722656 55.441406 C 48.019531 55.65625 48.371094 55.773438 48.671875 55.984375 C 48.808594 56.082031 48.933594 56.183594 49.039062 56.3125 C 49.292969 56.621094 49.59375 56.886719 49.917969 57.121094 C 49.949219 57.140625 49.980469 57.160156 50.003906 57.183594 C 50.390625 57.640625 50.871094 58.003906 51.214844 58.5 C 51.578125 59.027344 51.765625 59.609375 51.675781 60.234375 C 51.621094 60.636719 51.480469 61.035156 51.292969 61.40625 C 51.21875 61.550781 51.136719 61.695312 51.128906 61.867188 C 51.125 61.914062 51.109375 61.964844 51.085938 62 C 50.71875 62.558594 50.425781 63.160156 50.015625 63.695312 C 49.695312 64.117188 49.367188 64.53125 49.023438 64.933594 C 48.914062 65.0625 48.777344 65.152344 48.664062 65.269531 C 48.429688 65.496094 48.195312 65.726562 47.953125 65.945312 C 47.839844 66.046875 47.765625 66.191406 47.617188 66.25 C 47.378906 66.34375 47.214844 66.535156 47.027344 66.699219 C 46.828125 66.871094 46.632812 67.054688 46.417969 67.214844 C 46.03125 67.5 45.625 67.75 45.203125 67.988281 C 44.476562 68.394531 44.582031 68.285156 44.886719 68.957031 C 45.035156 69.285156 45.003906 69.605469 44.804688 69.859375 C 44.589844 70.128906 44.371094 70.414062 44.039062 70.574219 C 43.816406 70.679688 43.613281 70.835938 43.386719 70.929688 C 42.976562 71.101562 42.550781 71.230469 42.089844 71.113281 C 41.90625 71.070312 41.808594 70.914062 41.613281 70.8125 C 41.5625 71.257812 41.421875 71.652344 41.304688 72.054688 C 41.1875 72.457031 41.03125 72.855469 41.015625 73.285156 C 41.011719 73.34375 40.980469 73.398438 40.960938 73.453125 C 40.847656 73.785156 40.753906 74.128906 40.621094 74.453125 C 40.484375 74.777344 40.417969 75.125 40.296875 75.453125 C 40.167969 75.800781 39.894531 76.09375 39.902344 76.496094 C 39.902344 76.539062 39.875 76.585938 39.847656 76.625 C 39.648438 76.90625 39.554688 77.234375 39.445312 77.558594 C 39.332031 77.789062 39.214844 78.019531 39.105469 78.25 C 38.902344 78.6875 38.648438 79.117188 38.285156 79.414062 C 37.976562 79.667969 37.75 80.039062 37.328125 80.15625 C 37.285156 80.167969 37.253906 80.238281 37.214844 80.285156 C 37.109375 80.351562 37.015625 80.433594 36.886719 80.476562 C 36.394531 80.648438 35.90625 80.828125 35.402344 80.964844 C 35.085938 80.96875 34.777344 80.917969 34.464844 80.878906 C 34.101562 80.835938 33.808594 80.644531 33.511719 80.464844 C 33.324219 80.351562 33.164062 80.191406 32.992188 80.050781 C 32.917969 79.910156 32.769531 79.84375 32.667969 79.726562 C 32.164062 79.152344 31.808594 78.5 31.601562 77.765625 C 31.515625 77.460938 31.390625 77.144531 31.402344 76.839844 C 31.414062 76.511719 31.40625 76.195312 31.363281 75.875 C 31.359375 75.839844 31.371094 75.804688 31.378906 75.769531 C 31.480469 75.316406 31.453125 74.855469 31.472656 74.398438 C 31.492188 73.789062 31.4375 73.175781 31.402344 72.566406 C 31.386719 72.308594 31.441406 72.042969 31.398438 71.796875 C 31.28125 71.171875 31.269531 70.539062 31.164062 69.914062 C 31.144531 69.796875 31.113281 69.6875 31.085938 69.574219 C 30.988281 69.1875 30.75 68.875 30.5625 68.542969 C 30.308594 68.085938 29.871094 67.792969 29.410156 67.597656 C 28.988281 67.417969 28.519531 67.351562 28.054688 67.371094 C 27.753906 67.382812 27.441406 67.4375 27.171875 67.570312 C 26.703125 67.808594 26.382812 68.21875 26.09375 68.652344 C 25.871094 68.984375 25.699219 69.34375 25.511719 69.695312 C 25.292969 70.097656 25.210938 70.539062 25.144531 70.964844 C 25.078125 71.40625 24.972656 71.839844 24.894531 72.273438 C 24.804688 72.761719 24.738281 73.246094 24.6875 73.738281 Z M 20.265625 79.113281 C 20.429688 79.097656 20.589844 79.101562 20.757812 79.074219 C 21.339844 78.984375 21.757812 78.640625 22.152344 78.238281 C 22.378906 78.011719 22.464844 77.71875 22.5625 77.433594 C 22.617188 77.277344 22.585938 77.105469 22.492188 76.957031 C 22.285156 76.640625 21.800781 76.605469 21.636719 76.925781 C 21.535156 77.125 21.394531 77.300781 21.304688 77.503906 C 21.179688 77.792969 20.9375 77.914062 20.648438 77.96875 C 20.324219 78.027344 20.003906 78.074219 19.671875 77.976562 C 19.519531 77.929688 19.347656 77.921875 19.1875 77.90625 C 18.996094 77.886719 18.863281 77.988281 18.789062 78.144531 C 18.710938 78.300781 18.722656 78.464844 18.84375 78.605469 C 18.929688 78.703125 19.027344 78.789062 19.148438 78.84375 C 19.5 79.011719 19.863281 79.148438 20.265625 79.113281 Z M 20.265625 79.113281 " fill-opacity="1" fill-rule="nonzero"/><path fill="#0e7386" d="M 45.449219 54.097656 C 45.476562 54.351562 45.40625 54.601562 45.390625 54.851562 C 45.382812 54.96875 45.371094 55.082031 45.394531 55.199219 C 45.351562 55.453125 45.320312 55.710938 45.265625 55.960938 C 45.164062 56.472656 45.113281 56.964844 45.292969 57.484375 C 45.601562 58.390625 45.78125 59.339844 46.21875 60.207031 C 46.332031 60.425781 46.355469 60.683594 46.445312 60.910156 C 46.945312 62.160156 47.222656 62 47.414062 62.382812 C 47.730469 63.050781 47.878906 63.808594 48.257812 64.441406 C 48.007812 64.652344 47.761719 64.867188 47.546875 65.117188 C 47.324219 65.378906 47.011719 65.539062 46.757812 65.765625 C 46.433594 66.054688 46.105469 66.347656 45.742188 66.578125 C 45.269531 66.882812 44.824219 67.234375 44.292969 67.441406 C 44.214844 67.472656 44.152344 67.519531 44.0625 67.464844 C 43.777344 67.285156 43.472656 67.335938 43.175781 67.421875 C 42.90625 67.5 42.640625 67.605469 42.382812 67.691406 C 42.300781 67.609375 42.3125 67.519531 42.363281 67.457031 C 42.660156 67.105469 42.632812 66.664062 42.695312 66.253906 C 42.722656 66.042969 42.734375 65.835938 42.851562 65.648438 C 42.914062 65.550781 42.9375 65.425781 42.949219 65.308594 C 42.980469 65.050781 43.042969 64.800781 43.15625 64.5625 C 43.203125 64.464844 43.210938 64.359375 43.214844 64.253906 C 43.21875 64.0625 43.253906 63.875 43.328125 63.703125 C 43.582031 63.140625 43.707031 62.542969 43.785156 61.9375 C 43.792969 61.855469 43.828125 61.777344 43.855469 61.699219 C 44.035156 61.214844 44.109375 60.699219 44.242188 60.199219 C 44.269531 60.109375 44.269531 60.015625 44.234375 59.890625 C 43.695312 60.046875 43.125 59.933594 42.582031 60.105469 C 42.53125 60.121094 42.464844 60.101562 42.40625 60.101562 C 42.351562 60.046875 42.277344 60.035156 42.214844 60.0625 C 42.050781 60.125 41.878906 60.113281 41.707031 60.128906 C 40.871094 60.113281 40.042969 60.035156 39.226562 59.832031 C 39.148438 59.8125 39.058594 59.765625 38.988281 59.785156 C 38.507812 59.925781 38.027344 59.773438 37.546875 59.777344 C 37.070312 59.785156 36.59375 59.675781 36.121094 59.589844 C 35.277344 59.4375 34.425781 59.316406 33.589844 59.101562 C 33.289062 59.023438 32.96875 58.988281 32.660156 58.941406 C 32.296875 58.882812 31.949219 58.761719 31.59375 58.691406 C 31.25 58.625 30.902344 58.582031 30.554688 58.527344 C 30.15625 58.464844 29.78125 58.34375 29.402344 58.226562 C 29.171875 58.15625 28.945312 58.070312 28.640625 57.964844 C 28.816406 58.199219 28.996094 58.324219 29.132812 58.484375 C 29.425781 58.839844 29.644531 59.246094 29.949219 59.59375 C 30.160156 59.832031 30.191406 60.160156 30.238281 60.453125 C 30.328125 61.035156 29.746094 61.792969 29.160156 61.886719 C 28.710938 61.960938 28.335938 61.757812 28.070312 61.429688 C 27.820312 61.128906 27.53125 60.84375 27.402344 60.449219 C 27.382812 60.386719 27.332031 60.332031 27.261719 60.226562 C 27.179688 60.570312 27.105469 60.863281 27.042969 61.15625 C 26.964844 61.519531 26.800781 61.839844 26.582031 62.144531 C 26.34375 62.476562 26.019531 62.65625 25.625 62.652344 C 25.332031 62.648438 25.054688 62.515625 24.863281 62.269531 C 24.65625 62.007812 24.582031 61.695312 24.628906 61.367188 C 24.667969 61.109375 24.664062 60.851562 24.675781 60.59375 C 24.703125 60.117188 24.914062 59.6875 25.070312 59.246094 C 25.117188 59.105469 25.199219 58.972656 25.171875 58.773438 C 24.636719 59.269531 24.050781 59.632812 23.457031 59.992188 C 22.992188 60.269531 22.503906 60.507812 22.015625 60.730469 C 21.863281 60.800781 21.730469 60.894531 21.585938 60.976562 C 21.175781 61.210938 20.75 61.402344 20.304688 61.5625 C 20.195312 61.597656 20.097656 61.675781 19.992188 61.730469 C 19.890625 61.785156 19.789062 61.859375 19.675781 61.882812 C 19.140625 61.992188 18.660156 62.238281 18.175781 62.476562 C 18.027344 62.550781 17.859375 62.554688 17.703125 62.621094 C 17.144531 62.871094 16.582031 63.101562 16.019531 63.335938 C 15.996094 63.34375 15.976562 63.359375 15.953125 63.359375 C 15.238281 63.460938 14.605469 63.828125 13.910156 64 C 13.679688 64.054688 13.460938 64.148438 13.246094 64.246094 C 13.0625 64.328125 12.867188 64.375 12.667969 64.398438 C 12.234375 64.160156 12.117188 63.734375 12.089844 63.296875 C 12.058594 62.804688 11.984375 62.316406 11.90625 61.832031 C 11.863281 61.566406 11.804688 61.296875 11.804688 61.027344 C 11.808594 60.761719 11.703125 60.523438 11.652344 60.269531 C 11.578125 59.878906 11.503906 59.484375 11.453125 59.097656 C 11.382812 58.554688 11.257812 58.023438 11.207031 57.476562 C 11.167969 57.035156 11.074219 56.59375 11.066406 56.152344 C 11.0625 55.828125 11 55.480469 11.242188 55.195312 C 11.394531 55.148438 11.539062 55.191406 11.691406 55.230469 C 12.734375 55.507812 13.753906 55.882812 14.828125 56.019531 C 15.394531 56.089844 15.921875 56.285156 16.472656 56.410156 C 17.214844 56.585938 17.957031 56.757812 18.71875 56.832031 C 19.117188 56.871094 19.519531 56.867188 19.917969 56.882812 C 20.09375 56.890625 20.269531 56.914062 20.441406 56.933594 C 21.246094 57.019531 22.039062 56.921875 22.828125 56.792969 C 23.179688 56.738281 23.53125 56.796875 23.882812 56.777344 C 24.574219 56.734375 25.261719 56.691406 25.929688 56.484375 C 26.132812 56.421875 26.335938 56.382812 26.554688 56.378906 C 26.835938 56.375 27.097656 56.238281 27.371094 56.175781 C 28.070312 56.015625 28.777344 55.90625 29.476562 55.746094 C 30.199219 55.578125 30.925781 55.4375 31.648438 55.277344 C 32.035156 55.191406 32.441406 55.195312 32.835938 55.105469 C 33.234375 55.011719 33.644531 54.96875 34.046875 54.886719 C 34.65625 54.765625 35.28125 54.71875 35.878906 54.535156 C 36.257812 54.417969 36.667969 54.394531 37.042969 54.25 C 37.503906 54.074219 37.984375 53.964844 38.425781 53.742188 C 38.644531 53.632812 38.890625 53.585938 39.125 53.503906 C 39.621094 53.332031 40.140625 53.210938 40.648438 53.070312 C 41.09375 52.953125 41.527344 52.804688 41.960938 52.660156 C 42.183594 52.585938 42.414062 52.53125 42.644531 52.492188 C 43.171875 52.402344 43.660156 52.214844 44.132812 51.96875 C 44.421875 51.816406 44.722656 51.683594 44.992188 51.492188 C 45.183594 51.355469 45.347656 51.460938 45.507812 51.578125 C 45.625 51.734375 45.664062 51.90625 45.65625 52.105469 C 45.648438 52.359375 45.65625 52.617188 45.660156 52.875 C 45.664062 53.101562 45.644531 53.320312 45.515625 53.515625 C 45.398438 53.699219 45.445312 53.902344 45.449219 54.097656 Z M 27.382812 58.226562 C 27.476562 58.59375 27.570312 58.871094 27.683594 59.15625 C 27.90625 59.722656 28.203125 60.234375 28.550781 60.726562 C 28.652344 60.863281 28.761719 60.976562 28.902344 61.066406 C 28.957031 61.097656 29.007812 61.105469 29.070312 61.082031 C 29.226562 61.011719 29.464844 60.65625 29.40625 60.5 C 29.3125 60.253906 29.320312 59.960938 29.078125 59.773438 C 28.988281 59.707031 28.945312 59.582031 28.871094 59.492188 C 28.691406 59.261719 28.535156 59 28.316406 58.8125 C 28.0625 58.597656 27.75 58.449219 27.382812 58.226562 Z M 26.539062 58.160156 C 26.410156 58.242188 26.390625 58.3125 26.359375 58.375 C 26.195312 58.722656 26.058594 59.082031 25.925781 59.445312 C 25.6875 60.089844 25.539062 60.746094 25.503906 61.429688 C 25.496094 61.5625 25.507812 61.664062 25.632812 61.726562 C 25.773438 61.792969 25.84375 61.695312 25.929688 61.609375 C 26.234375 61.296875 26.300781 60.882812 26.382812 60.480469 C 26.527344 59.734375 26.453125 58.96875 26.539062 58.160156 Z M 26.539062 58.160156 " fill-opacity="1" fill-rule="nonzero"/><g clip-path="url(#fe7648de85)"><path fill="#0e7386" d="M 39.445312 77.835938 C 39.554688 77.511719 39.648438 77.183594 39.847656 76.898438 C 39.875 76.863281 39.902344 76.8125 39.902344 76.769531 C 39.894531 76.371094 40.167969 76.078125 40.296875 75.730469 C 40.417969 75.402344 40.484375 75.054688 40.621094 74.726562 C 40.753906 74.40625 40.847656 74.0625 40.960938 73.730469 C 40.980469 73.675781 41.011719 73.621094 41.015625 73.5625 C 41.03125 73.132812 41.1875 72.734375 41.304688 72.332031 C 41.421875 71.929688 41.5625 71.53125 41.613281 71.089844 C 41.808594 71.191406 41.90625 71.34375 42.089844 71.390625 C 42.550781 71.507812 42.976562 71.378906 43.386719 71.207031 C 43.613281 71.113281 43.816406 70.957031 44.039062 70.851562 C 44.371094 70.691406 44.589844 70.40625 44.804688 70.132812 C 45.003906 69.878906 45.035156 69.5625 44.886719 69.234375 C 44.582031 68.5625 44.476562 68.671875 45.203125 68.265625 C 45.625 68.027344 46.03125 67.777344 46.417969 67.492188 C 46.632812 67.332031 46.828125 67.148438 47.027344 66.972656 C 47.214844 66.8125 47.378906 66.621094 47.617188 66.527344 C 47.765625 66.46875 47.839844 66.324219 47.953125 66.222656 C 48.195312 66 48.429688 65.773438 48.664062 65.546875 C 48.902344 65.800781 49.019531 66.128906 49.210938 66.414062 C 49.6875 67.113281 50.054688 67.882812 50.496094 68.601562 C 50.621094 68.804688 50.792969 68.976562 50.898438 69.183594 C 51.195312 69.773438 51.59375 70.304688 51.875 70.898438 C 52.058594 71.28125 52.296875 71.632812 52.507812 72 C 52.871094 72.628906 53.226562 73.261719 53.375 73.992188 C 53.433594 74.300781 53.585938 74.589844 53.628906 74.910156 C 53.671875 75.261719 53.566406 75.5625 53.3125 75.800781 C 53.164062 75.941406 53.003906 76.058594 52.882812 76.222656 C 52.816406 76.3125 52.710938 76.339844 52.609375 76.367188 C 52.214844 76.480469 51.816406 76.449219 51.421875 76.394531 C 51.339844 76.382812 51.257812 76.355469 51.175781 76.355469 C 50.5625 76.371094 50 76.128906 49.421875 75.980469 C 49.070312 75.890625 48.71875 75.800781 48.367188 75.703125 C 47.9375 75.582031 47.539062 75.375 47.132812 75.191406 C 46.914062 75.089844 46.722656 74.921875 46.472656 74.890625 C 46.414062 75.007812 46.421875 75.121094 46.464844 75.214844 C 46.585938 75.488281 46.609375 75.78125 46.679688 76.066406 C 46.796875 76.574219 46.546875 76.929688 46.21875 77.253906 C 46.121094 77.351562 45.980469 77.359375 45.851562 77.347656 C 45.292969 77.292969 44.757812 77.179688 44.324219 76.777344 C 44.027344 76.496094 43.800781 76.441406 43.410156 76.496094 C 43.4375 76.769531 43.535156 77.015625 43.6875 77.238281 C 43.761719 77.347656 43.808594 77.460938 43.839844 77.589844 C 43.886719 77.792969 43.996094 77.980469 43.871094 78.199219 C 43.710938 78.480469 43.546875 78.761719 43.21875 78.855469 C 42.910156 78.941406 42.601562 78.917969 42.289062 78.800781 C 41.699219 78.585938 41.160156 78.269531 40.582031 78.03125 C 40.214844 77.882812 39.839844 77.8125 39.445312 77.835938 Z M 39.445312 77.835938 " fill-opacity="1" fill-rule="nonzero"/></g><path fill="#0e7386" d="M 24.6875 73.738281 C 24.738281 73.246094 24.804688 72.761719 24.894531 72.273438 C 24.972656 71.839844 25.078125 71.40625 25.144531 70.964844 C 25.210938 70.539062 25.292969 70.097656 25.511719 69.695312 C 25.699219 69.34375 25.871094 68.984375 26.09375 68.652344 C 26.382812 68.21875 26.703125 67.808594 27.171875 67.570312 C 27.441406 67.4375 27.753906 67.382812 28.054688 67.371094 C 28.519531 67.351562 28.988281 67.417969 29.410156 67.597656 C 29.871094 67.792969 30.308594 68.085938 30.5625 68.542969 C 30.75 68.875 30.988281 69.1875 31.085938 69.574219 C 31.113281 69.6875 31.144531 69.796875 31.164062 69.914062 C 31.269531 70.539062 31.28125 71.171875 31.398438 71.796875 C 31.441406 72.042969 31.386719 72.308594 31.402344 72.566406 C 31.4375 73.175781 31.492188 73.789062 31.472656 74.398438 C 31.453125 74.855469 31.480469 75.316406 31.378906 75.769531 C 31.371094 75.804688 31.359375 75.839844 31.363281 75.875 C 31.40625 76.195312 31.414062 76.511719 31.402344 76.839844 C 31.390625 77.144531 31.515625 77.460938 31.601562 77.765625 C 31.808594 78.5 32.164062 79.152344 32.667969 79.726562 C 32.769531 79.84375 32.917969 79.910156 32.992188 80.050781 C 32.609375 79.949219 32.355469 79.613281 31.980469 79.488281 C 31.773438 79.417969 31.59375 79.28125 31.414062 79.152344 C 31.15625 78.96875 30.863281 78.832031 30.578125 78.699219 C 30.285156 78.566406 30.046875 78.359375 29.792969 78.171875 C 29.484375 77.9375 29.191406 77.679688 28.863281 77.476562 C 28.625 77.328125 28.410156 77.136719 28.199219 76.957031 C 27.71875 76.550781 27.21875 76.15625 26.785156 75.695312 C 26.632812 75.535156 26.433594 75.429688 26.261719 75.292969 C 25.847656 74.96875 25.5625 74.535156 25.179688 74.191406 C 25.011719 74.042969 24.875 73.863281 24.6875 73.738281 Z M 24.6875 73.738281 " fill-opacity="1" fill-rule="nonzero"/><path fill="#bbbab8" d="M 37.507812 35.753906 C 37.695312 35.832031 37.890625 35.863281 38.089844 35.894531 C 38.3125 35.925781 38.53125 35.972656 38.707031 36.132812 C 38.96875 36.375 38.898438 36.707031 38.554688 36.816406 C 38.292969 36.898438 38.027344 36.886719 37.753906 36.863281 C 37.101562 36.8125 36.449219 36.734375 35.792969 36.878906 C 35.292969 36.988281 34.769531 36.992188 34.273438 37.113281 C 33.734375 37.246094 33.1875 37.265625 32.648438 37.363281 C 31.945312 37.492188 31.246094 37.632812 30.539062 37.734375 C 30.355469 37.757812 30.203125 37.832031 30.035156 37.886719 C 29.417969 38.078125 28.832031 38.355469 28.210938 38.523438 C 28.152344 38.539062 28.089844 38.550781 28.046875 38.585938 C 27.5 39.015625 26.792969 39.105469 26.214844 39.464844 C 25.738281 39.761719 25.183594 39.90625 24.714844 40.234375 C 24.441406 40.421875 24.089844 40.492188 23.785156 40.648438 C 23.632812 40.726562 23.460938 40.78125 23.3125 40.878906 C 22.734375 41.273438 22.078125 41.5 21.421875 41.722656 C 21.199219 41.800781 20.984375 41.898438 20.769531 41.988281 C 20.714844 42.011719 20.660156 42.054688 20.605469 42.054688 C 20.1875 42.058594 19.8125 42.265625 19.40625 42.328125 C 19.289062 42.347656 19.171875 42.359375 19.054688 42.339844 C 18.75 42.285156 18.554688 42.09375 18.539062 41.84375 C 18.519531 41.585938 18.746094 41.296875 19.03125 41.226562 C 19.121094 41.203125 19.21875 41.214844 19.308594 41.191406 C 20.164062 40.984375 21.007812 40.761719 21.804688 40.367188 C 22.332031 40.109375 22.839844 39.8125 23.386719 39.597656 C 23.496094 39.554688 23.605469 39.503906 23.691406 39.417969 C 23.820312 39.289062 23.984375 39.222656 24.152344 39.164062 C 24.375 39.085938 24.585938 38.984375 24.769531 38.832031 C 24.808594 38.800781 24.84375 38.765625 24.886719 38.75 C 25.539062 38.550781 26.113281 38.167969 26.753906 37.929688 C 27.128906 37.792969 27.480469 37.597656 27.835938 37.410156 C 28.039062 37.304688 28.296875 37.328125 28.480469 37.125 C 28.390625 37.113281 28.320312 37.105469 28.253906 37.09375 C 28.535156 37.023438 28.820312 36.964844 29.101562 36.902344 C 29.539062 36.804688 29.941406 36.601562 30.378906 36.511719 C 30.449219 36.496094 30.515625 36.457031 30.582031 36.457031 C 30.929688 36.464844 31.269531 36.414062 31.59375 36.316406 C 32.113281 36.160156 32.664062 36.214844 33.183594 36.054688 C 33.4375 35.976562 33.71875 35.996094 33.988281 35.96875 C 34.050781 36 34.113281 36.027344 34.1875 36.003906 C 34.605469 35.871094 35.035156 35.832031 35.464844 35.824219 C 35.5625 35.824219 35.652344 35.808594 35.738281 35.761719 C 35.863281 35.6875 36.003906 35.683594 36.144531 35.683594 C 36.601562 35.683594 37.058594 35.660156 37.507812 35.753906 Z M 37.507812 35.753906 " fill-opacity="1" fill-rule="nonzero"/><path fill="#bbbab8" d="M 42.4375 35.480469 C 42.050781 35.480469 41.855469 35.191406 41.984375 34.875 C 42.011719 34.808594 42.039062 34.738281 42.085938 34.691406 C 42.449219 34.320312 42.597656 33.824219 42.859375 33.398438 C 43.175781 32.875 43.417969 32.308594 43.8125 31.835938 C 43.921875 31.703125 43.988281 31.535156 44.074219 31.378906 C 44.230469 31.101562 44.480469 31.007812 44.722656 31.136719 C 44.957031 31.261719 45.082031 31.59375 44.96875 31.835938 C 44.902344 31.984375 44.816406 32.128906 44.71875 32.261719 C 44.449219 32.636719 44.238281 33.039062 44.035156 33.453125 C 43.917969 33.691406 43.6875 33.867188 43.585938 34.121094 C 43.449219 34.460938 43.207031 34.742188 43.042969 35.070312 C 42.910156 35.332031 42.6875 35.46875 42.4375 35.480469 Z M 42.4375 35.480469 " fill-opacity="1" fill-rule="nonzero"/><path fill="#bbbab8" d="M 44.417969 37.464844 C 44.226562 37.472656 44.058594 37.425781 43.914062 37.316406 C 43.652344 37.113281 43.65625 36.75 43.953125 36.617188 C 44.558594 36.339844 44.96875 35.824219 45.488281 35.445312 C 45.816406 35.203125 46.09375 34.890625 46.464844 34.699219 C 46.636719 34.609375 46.765625 34.4375 46.914062 34.308594 C 47.101562 34.148438 47.304688 34.15625 47.507812 34.261719 C 47.808594 34.417969 47.878906 34.78125 47.621094 34.992188 C 47.378906 35.191406 47.226562 35.507812 46.882812 35.578125 C 46.8125 35.59375 46.773438 35.664062 46.742188 35.726562 C 46.695312 35.8125 46.628906 35.886719 46.542969 35.921875 C 46.203125 36.058594 45.976562 36.34375 45.71875 36.582031 C 45.5625 36.726562 45.410156 36.863281 45.226562 36.976562 C 45.097656 37.054688 44.96875 37.136719 44.875 37.265625 C 44.761719 37.425781 44.597656 37.476562 44.417969 37.464844 Z M 44.417969 37.464844 " fill-opacity="1" fill-rule="nonzero"/><path fill="#bbbab8" d="M 48.980469 39.011719 C 48.882812 38.992188 48.796875 38.972656 48.722656 39.019531 C 48.246094 39.34375 47.652344 39.355469 47.144531 39.601562 C 47.082031 39.628906 47.007812 39.632812 46.9375 39.640625 C 46.59375 39.671875 46.273438 39.773438 45.953125 39.902344 C 45.679688 40.015625 45.492188 39.945312 45.335938 39.726562 C 45.136719 39.445312 45.226562 39.140625 45.550781 39.011719 C 46.140625 38.78125 46.742188 38.601562 47.367188 38.476562 C 47.695312 38.410156 48.015625 38.269531 48.320312 38.121094 C 48.652344 37.964844 48.960938 37.921875 49.296875 38.097656 C 49.527344 38.21875 49.644531 38.378906 49.605469 38.589844 C 49.566406 38.816406 49.378906 38.984375 49.140625 39.007812 C 49.082031 39.015625 49.023438 39.011719 48.980469 39.011719 Z M 48.980469 39.011719 " fill-opacity="1" fill-rule="nonzero"/><path fill="#db383f" d="M 21.28125 52.316406 C 20.941406 52.339844 20.503906 52.261719 20.113281 51.972656 C 19.703125 51.671875 19.707031 50.871094 20.140625 50.597656 C 20.566406 50.332031 21.007812 50.152344 21.539062 50.257812 C 21.835938 50.316406 22.136719 50.304688 22.441406 50.386719 C 22.921875 50.511719 23.191406 51.355469 22.804688 51.726562 C 22.308594 52.207031 22.203125 52.335938 21.28125 52.316406 Z M 21.28125 52.316406 " fill-opacity="1" fill-rule="nonzero"/><path fill="#db383f" d="M 33.6875 51.972656 C 33.480469 51.996094 33.257812 51.921875 33.035156 51.847656 C 32.617188 51.710938 32.355469 51.339844 32.363281 50.917969 C 32.375 50.441406 32.679688 50.070312 33.097656 49.914062 C 33.660156 49.710938 34.210938 49.789062 34.757812 49.921875 C 35.050781 49.992188 35.269531 50.203125 35.410156 50.476562 C 35.503906 50.664062 35.464844 50.839844 35.367188 51.015625 C 35.042969 51.617188 34.386719 52.011719 33.6875 51.972656 Z M 33.6875 51.972656 " fill-opacity="1" fill-rule="nonzero"/><path fill="#db383f" d="M 27.148438 53.878906 C 27.050781 53.527344 27.125 53.207031 27.316406 52.90625 C 27.546875 52.542969 27.824219 52.246094 28.242188 52.078125 C 28.566406 51.949219 28.886719 51.964844 29.210938 52.007812 C 29.613281 52.058594 29.976562 52.496094 30 52.910156 C 30.003906 52.980469 30.003906 53.050781 30.007812 53.121094 C 29.664062 53.894531 28.550781 54.359375 27.703125 54.167969 C 27.496094 54.121094 27.296875 54.042969 27.148438 53.878906 Z M 27.148438 53.878906 " fill-opacity="1" fill-rule="nonzero"/><path fill="#bbbab8" d="M 41.707031 60.128906 C 41.878906 60.113281 42.050781 60.125 42.214844 60.0625 C 42.277344 60.035156 42.351562 60.046875 42.40625 60.101562 C 42.296875 60.136719 42.273438 60.199219 42.292969 60.316406 C 42.382812 60.816406 42.390625 61.320312 42.238281 61.816406 C 42.222656 61.859375 42.199219 61.910156 42.207031 61.953125 C 42.269531 62.375 42.085938 62.761719 42.039062 63.171875 C 42.011719 63.410156 41.949219 63.65625 41.867188 63.882812 C 41.707031 64.328125 41.597656 64.785156 41.488281 65.242188 C 41.359375 65.761719 41.148438 66.265625 41.136719 66.8125 C 41.132812 66.914062 41.097656 67.019531 41.066406 67.121094 C 40.933594 67.585938 40.828125 68.054688 40.753906 68.53125 C 40.691406 68.929688 40.488281 69.285156 40.441406 69.6875 C 40.390625 70.121094 40.277344 70.539062 40.164062 70.960938 C 40.125 71.097656 40.089844 71.234375 40.019531 71.355469 C 39.949219 71.472656 39.910156 71.597656 39.90625 71.726562 C 39.886719 72.550781 39.570312 73.296875 39.300781 74.058594 C 39.28125 74.125 39.238281 74.191406 39.230469 74.257812 C 39.179688 74.722656 38.933594 75.125 38.808594 75.5625 C 38.757812 75.75 38.621094 75.882812 38.542969 76.058594 C 38.296875 76.628906 38.046875 77.199219 37.734375 77.734375 C 37.535156 78.074219 37.292969 78.398438 37.039062 78.710938 C 36.863281 78.925781 36.640625 78.957031 36.40625 78.835938 C 36.171875 78.714844 36.0625 78.472656 36.132812 78.210938 C 36.160156 78.109375 36.199219 78.011719 36.261719 77.921875 C 36.664062 77.355469 37.035156 76.773438 37.265625 76.109375 C 37.335938 75.902344 37.480469 75.71875 37.582031 75.519531 C 37.902344 74.890625 38.105469 74.214844 38.289062 73.535156 C 38.375 73.230469 38.496094 72.941406 38.554688 72.625 C 38.648438 72.140625 38.703125 71.648438 38.867188 71.179688 C 38.972656 70.878906 39.046875 70.570312 39.148438 70.269531 C 39.308594 69.800781 39.316406 69.300781 39.476562 68.828125 C 39.617188 68.421875 39.679688 67.988281 39.753906 67.5625 C 39.804688 67.28125 39.820312 67 39.972656 66.75 C 39.988281 66.722656 40 66.679688 39.996094 66.648438 C 39.945312 66.230469 40.164062 65.875 40.257812 65.492188 C 40.339844 65.136719 40.453125 64.792969 40.507812 64.429688 C 40.546875 64.199219 40.632812 63.976562 40.71875 63.753906 C 40.984375 63.058594 41.089844 62.324219 41.273438 61.609375 C 41.34375 61.339844 41.421875 61.070312 41.503906 60.804688 C 41.574219 60.582031 41.671875 60.363281 41.707031 60.128906 Z M 41.707031 60.128906 " fill-opacity="1" fill-rule="nonzero"/><path fill="#bbbab8" d="M 20.265625 79.113281 C 19.863281 79.148438 19.5 79.011719 19.148438 78.84375 C 19.027344 78.789062 18.929688 78.703125 18.84375 78.605469 C 18.722656 78.464844 18.710938 78.300781 18.789062 78.144531 C 18.863281 77.988281 18.996094 77.886719 19.1875 77.90625 C 19.347656 77.921875 19.519531 77.929688 19.671875 77.976562 C 20.003906 78.074219 20.324219 78.027344 20.648438 77.96875 C 20.9375 77.914062 21.179688 77.792969 21.304688 77.503906 C 21.394531 77.300781 21.535156 77.125 21.636719 76.925781 C 21.800781 76.605469 22.285156 76.640625 22.492188 76.957031 C 22.585938 77.105469 22.617188 77.277344 22.5625 77.433594 C 22.464844 77.71875 22.378906 78.011719 22.152344 78.238281 C 21.757812 78.640625 21.339844 78.984375 20.757812 79.074219 C 20.589844 79.101562 20.429688 79.097656 20.265625 79.113281 Z M 20.265625 79.113281 " fill-opacity="1" fill-rule="nonzero"/><path fill="#bbbab8" d="M 27.382812 58.226562 C 27.75 58.449219 28.0625 58.597656 28.316406 58.8125 C 28.535156 59 28.691406 59.261719 28.871094 59.492188 C 28.945312 59.582031 28.988281 59.707031 29.078125 59.773438 C 29.320312 59.960938 29.3125 60.253906 29.40625 60.5 C 29.464844 60.65625 29.226562 61.011719 29.070312 61.082031 C 29.007812 61.105469 28.957031 61.097656 28.902344 61.066406 C 28.761719 60.976562 28.652344 60.863281 28.550781 60.726562 C 28.203125 60.234375 27.90625 59.722656 27.683594 59.15625 C 27.570312 58.871094 27.476562 58.59375 27.382812 58.226562 Z M 27.382812 58.226562 " fill-opacity="1" fill-rule="nonzero"/><path fill="#bbbab8" d="M 26.539062 58.160156 C 26.453125 58.96875 26.527344 59.734375 26.382812 60.480469 C 26.300781 60.882812 26.234375 61.296875 25.929688 61.609375 C 25.84375 61.695312 25.773438 61.792969 25.632812 61.726562 C 25.507812 61.664062 25.496094 61.5625 25.503906 61.429688 C 25.539062 60.746094 25.6875 60.089844 25.925781 59.445312 C 26.058594 59.082031 26.195312 58.722656 26.359375 58.375 C 26.390625 58.3125 26.410156 58.242188 26.539062 58.160156 Z M 26.539062 58.160156 " fill-opacity="1" fill-rule="nonzero"/><g clip-path="url(#703fcdc332)"><path fill="#bbbab8" d="M 17.417969 49.101562 L 23.511719 49.101562 L 23.511719 55.984375 L 17.417969 55.984375 Z M 17.417969 49.101562 " fill-opacity="1" fill-rule="nonzero"/></g><g clip-path="url(#35dfd1d487)"><path fill="#bbbab8" d="M 31.683594 49.101562 L 35.792969 49.101562 L 35.792969 53.34375 L 31.683594 53.34375 Z M 31.683594 49.101562 " fill-opacity="1" fill-rule="nonzero"/></g><g clip-path="url(#e6c752898c)"><path fill="#000000" d="M 41.988281 45.699219 L 41.988281 46.738281 L 40.945312 46.738281 L 40.945312 47.917969 L 39.835938 47.917969 L 39.835938 49.027344 L 38.722656 49.027344 L 38.722656 50.109375 L 37.597656 50.109375 L 37.597656 51.21875 L 31.046875 51.21875 L 31.046875 50.109375 L 29.847656 50.109375 L 29.847656 49.027344 L 28.734375 49.027344 L 28.734375 46.738281 L 26.542969 46.738281 L 26.542969 49.027344 L 25.433594 49.027344 L 25.433594 50.035156 L 24.320312 50.035156 L 24.320312 51.21875 L 16.644531 51.21875 L 16.644531 50.109375 L 15.445312 50.109375 L 15.445312 49.027344 L 14.332031 49.027344 L 14.332031 46.898438 L 13.234375 46.898438 L 13.234375 45.699219 L 41.988281 45.699219 " fill-opacity="1" fill-rule="nonzero"/></g><path fill="#ffffff" d="M 35.039062 48.976562 L 34 48.976562 L 34 50.015625 L 35.039062 50.015625 Z M 34 47.9375 L 32.957031 47.9375 L 32.957031 48.976562 L 34 48.976562 Z M 32.957031 48.976562 L 31.917969 48.976562 L 31.917969 50.015625 L 32.957031 50.015625 Z M 32.957031 46.898438 L 31.917969 46.898438 L 31.917969 47.9375 L 32.957031 47.9375 Z M 31.917969 47.9375 L 30.878906 47.9375 L 30.878906 48.976562 L 31.917969 48.976562 Z M 30.878906 46.898438 L 29.835938 46.898438 L 29.835938 47.9375 L 30.878906 47.9375 Z M 20.636719 48.976562 L 19.597656 48.976562 L 19.597656 50.015625 L 20.636719 50.015625 Z M 19.597656 47.9375 L 18.554688 47.9375 L 18.554688 48.976562 L 19.597656 48.976562 Z M 18.554688 48.976562 L 17.515625 48.976562 L 17.515625 50.015625 L 18.554688 50.015625 Z M 20.636719 46.898438 L 19.597656 46.898438 L 19.597656 47.9375 L 20.636719 47.9375 Z M 16.472656 46.898438 L 15.433594 46.898438 L 15.433594 47.9375 L 16.472656 47.9375 Z M 18.554688 46.898438 L 17.515625 46.898438 L 17.515625 47.9375 L 18.554688 47.9375 Z M 17.515625 48.976562 L 16.472656 48.976562 L 16.472656 47.9375 L 17.515625 47.9375 L 17.515625 48.976562 " fill-opacity="1" fill-rule="nonzero"/><g fill="#0e7386" fill-opacity="1"><g transform="translate(54.779421, 71.456919)"><g><path d="M 18.953125 -22.796875 C 16.5625 -25.117188 13.304688 -26.296875 9.804688 -26.191406 L 9.492188 -26.15625 L 9.421875 -26.367188 C 9.042969 -26.296875 8.695312 -26.226562 8.316406 -26.15625 C 7.242188 -25.914062 6.132812 -25.671875 5.09375 -25.359375 C 3.152344 -24.738281 2.804688 -24.21875 2.738281 -22.105469 C 2.703125 -20.128906 2.667969 -18.121094 2.667969 -16.109375 C 2.597656 -13.199219 2.5625 -10.289062 2.496094 -7.34375 C 2.496094 -6.617188 2.21875 -5.785156 1.800781 -5.09375 C 1.316406 -4.261719 1.144531 -3.359375 1.351562 -2.5625 C 1.523438 -1.90625 1.941406 -1.351562 2.5625 -1.003906 C 3.535156 -0.449219 4.710938 -0.136719 5.714844 -0.207031 C 10.21875 -0.414062 14.449219 -1.90625 18.222656 -4.710938 C 21.203125 -6.894531 22.726562 -9.875 22.726562 -13.652344 C 22.726562 -17.148438 21.34375 -20.476562 18.953125 -22.796875 Z M 13.894531 -10.011719 C 12.820312 -9.355469 11.710938 -8.800781 10.496094 -8.210938 C 9.945312 -7.933594 9.355469 -7.65625 8.765625 -7.34375 L 8.246094 -7.101562 L 7.621094 -21.03125 L 8.074219 -20.960938 C 8.382812 -20.925781 8.730469 -20.890625 9.042969 -20.855469 C 10.636719 -20.648438 12.265625 -20.476562 13.71875 -19.574219 C 15.382812 -18.570312 16.386719 -16.769531 16.421875 -14.757812 C 16.421875 -12.785156 15.488281 -11.015625 13.894531 -10.011719 Z M 13.894531 -10.011719 "/></g></g></g><g fill="#0e7386" fill-opacity="1"><g transform="translate(78.823894, 71.456919)"><g><path d="M 15.523438 -13.753906 C 15.105469 -15.246094 14.03125 -16.285156 12.644531 -17.011719 C 10.429688 -18.121094 8.246094 -18.050781 6.0625 -16.871094 C 5.75 -17.601562 5.648438 -18.363281 5.195312 -18.847656 C 4.710938 -19.367188 3.914062 -19.921875 3.292969 -19.851562 C 2.703125 -19.816406 2.078125 -19.054688 1.628906 -18.5 C 1.386719 -18.222656 1.386719 -17.667969 1.386719 -17.253906 C 1.316406 -13.132812 1.28125 -8.972656 1.28125 -4.851562 C 1.246094 -4.433594 1.351562 -3.984375 1.457031 -3.570312 C 1.835938 -1.90625 3.152344 -0.867188 4.78125 -0.96875 C 6.339844 -1.074219 7.585938 -2.285156 7.761719 -3.949219 C 7.828125 -4.746094 7.585938 -5.578125 7.761719 -6.304688 C 8.140625 -7.96875 8.625 -9.632812 9.179688 -11.226562 C 9.492188 -12.125 10.21875 -12.300781 11.121094 -11.882812 C 11.78125 -11.539062 12.472656 -11.121094 13.199219 -11.085938 C 13.859375 -11.015625 14.828125 -11.15625 15.210938 -11.605469 C 15.589844 -12.089844 15.730469 -13.097656 15.523438 -13.753906 Z M 15.523438 -13.753906 "/></g></g></g><g fill="#0e7386" fill-opacity="1"><g transform="translate(95.765889, 71.456919)"><g><path d="M 19.644531 -25.5 C 19.367188 -25.570312 19.089844 -25.636719 18.777344 -25.671875 C 17.601562 -25.8125 16.421875 -25.878906 15.246094 -25.878906 C 12.855469 -25.878906 10.464844 -25.636719 8.140625 -25.359375 C 6.6875 -25.222656 5.195312 -25.050781 3.707031 -24.945312 C 3.671875 -24.945312 3.636719 -24.910156 3.570312 -24.910156 L 3.464844 -24.875 C 2.007812 -24.460938 1.210938 -23.59375 1.28125 -22.382812 C 1.316406 -21.238281 2.113281 -20.441406 3.570312 -20.09375 C 3.914062 -20.027344 4.261719 -19.992188 4.644531 -19.957031 C 5.441406 -19.851562 6.238281 -19.78125 7.03125 -19.714844 L 8.175781 -19.574219 L 8.210938 -18.984375 C 8.210938 -18.8125 8.210938 -18.675781 8.210938 -18.5 C 8.210938 -17.289062 8.175781 -16.074219 8.140625 -14.863281 C 8.074219 -11.882812 8.039062 -8.835938 8.039062 -5.820312 C 8.039062 -4.746094 8.246094 -3.570312 8.660156 -2.496094 C 9.078125 -1.421875 10.011719 -0.796875 11.261719 -0.796875 C 12.472656 -0.796875 13.40625 -1.421875 13.824219 -2.5625 C 14.171875 -3.429688 14.34375 -4.367188 14.308594 -5.195312 C 14.238281 -7.484375 13.996094 -9.734375 13.789062 -11.640625 C 13.582031 -13.40625 13.339844 -15.175781 13.097656 -17.011719 C 12.957031 -17.84375 12.855469 -18.710938 12.75 -19.574219 L 12.679688 -19.992188 L 15.867188 -19.992188 C 16.214844 -19.992188 16.5625 -19.992188 16.90625 -19.957031 C 17.636719 -19.957031 18.433594 -19.957031 19.160156 -19.992188 C 20.648438 -20.128906 21.757812 -21.132812 21.894531 -22.519531 C 22 -23.871094 21.132812 -25.050781 19.644531 -25.5 Z M 19.644531 -25.5 "/></g></g></g><g fill="#0e7386" fill-opacity="1"><g transform="translate(118.978852, 71.456919)"><g><path d="M 14.726562 -25.8125 C 14.550781 -25.847656 14.378906 -25.847656 14.171875 -25.847656 C 13.824219 -25.847656 13.441406 -25.8125 13.0625 -25.742188 L 12.714844 -25.707031 C 7.34375 -25.015625 3.8125 -22 1.90625 -16.492188 C 0.761719 -13.199219 1.144531 -9.078125 2.875 -6.027344 C 4.433594 -3.324219 7 -1.523438 10.253906 -0.867188 L 10.359375 -0.832031 C 10.878906 -0.726562 11.398438 -0.625 11.917969 -0.554688 C 15.523438 -0.136719 18.363281 -1.179688 20.578125 -3.8125 L 21.273438 -4.574219 C 21.828125 -5.230469 22.417969 -5.925781 22.96875 -6.582031 C 24.53125 -8.453125 25.394531 -10.773438 25.671875 -13.929688 C 25.222656 -21.757812 20.960938 -24.320312 14.726562 -25.8125 Z M 19.367188 -13.375 C 19.230469 -13.0625 19.089844 -12.75 18.953125 -12.402344 C 18.605469 -11.640625 18.257812 -10.878906 17.808594 -10.117188 C 17.496094 -9.597656 17.082031 -9.179688 16.699219 -8.765625 C 16.527344 -8.59375 16.351562 -8.417969 16.214844 -8.246094 C 15.246094 -7.207031 13.929688 -6.617188 12.507812 -6.617188 C 12.160156 -6.617188 11.847656 -6.652344 11.503906 -6.722656 C 9.667969 -7.066406 8.175781 -8.351562 7.519531 -10.117188 C 6.546875 -12.820312 7 -15.382812 8.902344 -18.222656 C 10.117188 -20.058594 11.46875 -20.371094 13.476562 -19.332031 C 14.238281 -18.953125 15.035156 -18.570312 16.042969 -18.1875 C 18.222656 -17.289062 19.125 -16.074219 19.402344 -13.582031 L 19.402344 -13.476562 Z M 19.367188 -13.375 "/></g></g></g><g fill="#0e7386" fill-opacity="1"><g transform="translate(145.968254, 71.456919)"><g><path d="M 14.726562 -25.8125 C 14.550781 -25.847656 14.378906 -25.847656 14.171875 -25.847656 C 13.824219 -25.847656 13.441406 -25.8125 13.0625 -25.742188 L 12.714844 -25.707031 C 7.34375 -25.015625 3.8125 -22 1.90625 -16.492188 C 0.761719 -13.199219 1.144531 -9.078125 2.875 -6.027344 C 4.433594 -3.324219 7 -1.523438 10.253906 -0.867188 L 10.359375 -0.832031 C 10.878906 -0.726562 11.398438 -0.625 11.917969 -0.554688 C 15.523438 -0.136719 18.363281 -1.179688 20.578125 -3.8125 L 21.273438 -4.574219 C 21.828125 -5.230469 22.417969 -5.925781 22.96875 -6.582031 C 24.53125 -8.453125 25.394531 -10.773438 25.671875 -13.929688 C 25.222656 -21.757812 20.960938 -24.320312 14.726562 -25.8125 Z M 19.367188 -13.375 C 19.230469 -13.0625 19.089844 -12.75 18.953125 -12.402344 C 18.605469 -11.640625 18.257812 -10.878906 17.808594 -10.117188 C 17.496094 -9.597656 17.082031 -9.179688 16.699219 -8.765625 C 16.527344 -8.59375 16.351562 -8.417969 16.214844 -8.246094 C 15.246094 -7.207031 13.929688 -6.617188 12.507812 -6.617188 C 12.160156 -6.617188 11.847656 -6.652344 11.503906 -6.722656 C 9.667969 -7.066406 8.175781 -8.351562 7.519531 -10.117188 C 6.546875 -12.820312 7 -15.382812 8.902344 -18.222656 C 10.117188 -20.058594 11.46875 -20.371094 13.476562 -19.332031 C 14.238281 -18.953125 15.035156 -18.570312 16.042969 -18.1875 C 18.222656 -17.289062 19.125 -16.074219 19.402344 -13.582031 L 19.402344 -13.476562 Z M 19.367188 -13.375 "/></g></g></g><g fill="#0e7386" fill-opacity="1"><g transform="translate(172.957656, 71.456919)"><g><path d="M 19.644531 -25.5 C 19.367188 -25.570312 19.089844 -25.636719 18.777344 -25.671875 C 17.601562 -25.8125 16.421875 -25.878906 15.246094 -25.878906 C 12.855469 -25.878906 10.464844 -25.636719 8.140625 -25.359375 C 6.6875 -25.222656 5.195312 -25.050781 3.707031 -24.945312 C 3.671875 -24.945312 3.636719 -24.910156 3.570312 -24.910156 L 3.464844 -24.875 C 2.007812 -24.460938 1.210938 -23.59375 1.28125 -22.382812 C 1.316406 -21.238281 2.113281 -20.441406 3.570312 -20.09375 C 3.914062 -20.027344 4.261719 -19.992188 4.644531 -19.957031 C 5.441406 -19.851562 6.238281 -19.78125 7.03125 -19.714844 L 8.175781 -19.574219 L 8.210938 -18.984375 C 8.210938 -18.8125 8.210938 -18.675781 8.210938 -18.5 C 8.210938 -17.289062 8.175781 -16.074219 8.140625 -14.863281 C 8.074219 -11.882812 8.039062 -8.835938 8.039062 -5.820312 C 8.039062 -4.746094 8.246094 -3.570312 8.660156 -2.496094 C 9.078125 -1.421875 10.011719 -0.796875 11.261719 -0.796875 C 12.472656 -0.796875 13.40625 -1.421875 13.824219 -2.5625 C 14.171875 -3.429688 14.34375 -4.367188 14.308594 -5.195312 C 14.238281 -7.484375 13.996094 -9.734375 13.789062 -11.640625 C 13.582031 -13.40625 13.339844 -15.175781 13.097656 -17.011719 C 12.957031 -17.84375 12.855469 -18.710938 12.75 -19.574219 L 12.679688 -19.992188 L 15.867188 -19.992188 C 16.214844 -19.992188 16.5625 -19.992188 16.90625 -19.957031 C 17.636719 -19.957031 18.433594 -19.957031 19.160156 -19.992188 C 20.648438 -20.128906 21.757812 -21.132812 21.894531 -22.519531 C 22 -23.871094 21.132812 -25.050781 19.644531 -25.5 Z M 19.644531 -25.5 "/></g></g></g><g fill="#0e7386" fill-opacity="1"><g transform="translate(196.170619, 71.456919)"><g><path d="M 23.90625 -3.152344 C 23.59375 -9.042969 23.246094 -15.277344 22.832031 -22.242188 C 22.761719 -23.28125 22.625 -24.21875 22.417969 -25.082031 C 22.242188 -25.8125 21.6875 -26.261719 20.925781 -26.332031 C 19.957031 -26.46875 19.402344 -25.878906 19.125 -25.359375 C 18.917969 -24.945312 18.742188 -24.460938 18.675781 -23.976562 C 18.535156 -22.96875 18.464844 -21.964844 18.398438 -21.066406 C 18.328125 -19.992188 18.292969 -18.953125 18.222656 -17.878906 L 18.121094 -16.042969 L 6.339844 -16.042969 L 6.238281 -17.496094 C 6.203125 -18.050781 6.167969 -18.605469 6.097656 -19.195312 C 6.027344 -20.476562 5.960938 -21.792969 5.785156 -23.074219 C 5.648438 -24.285156 4.917969 -25.050781 3.878906 -25.117188 C 2.839844 -25.1875 2.007812 -24.425781 1.730469 -23.214844 C 1.523438 -22.070312 1.210938 -20.648438 1.28125 -19.332031 C 1.488281 -14.066406 1.800781 -8.382812 2.253906 -1.421875 C 2.320312 -0.0703125 3.152344 0.867188 4.296875 0.867188 C 4.332031 0.867188 4.332031 0.867188 4.332031 0.867188 C 5.472656 0.832031 6.238281 -0.0703125 6.375 -1.523438 C 6.410156 -1.941406 6.410156 -2.425781 6.410156 -2.839844 L 6.410156 -2.980469 C 6.410156 -4.367188 6.375 -5.785156 6.375 -7.207031 L 6.339844 -9.597656 C 6.339844 -9.875 6.339844 -10.152344 6.339844 -10.496094 L 6.339844 -11.363281 L 18.1875 -11.363281 L 18.15625 -10.53125 C 18.15625 -10.21875 18.15625 -9.910156 18.1875 -9.597656 C 18.1875 -8.972656 18.222656 -8.351562 18.222656 -7.726562 C 18.292969 -6.027344 18.363281 -4.261719 18.5 -2.527344 C 18.570312 -1.730469 18.847656 -0.832031 19.296875 0 C 19.78125 0.933594 20.613281 1.386719 21.6875 1.246094 C 22.726562 1.109375 23.457031 0.484375 23.699219 -0.519531 C 23.871094 -1.28125 23.941406 -2.183594 23.90625 -3.152344 Z M 23.90625 -3.152344 "/></g></g></g></svg>